# xmcd CD database file
#
# Track frame offsets:
#	182
#	12130
#	26012
#	35932
#	46417
#	58587
#	73092
#	82900
#	100345
#	109922
#	123002
#	137912
#	150172
#	163750
#	174647
#	186615
#	199852
#	211465
#	223005
#	242035
#	252060
#	264350
#	270832
#	279685
#	294775
#
# Disc length: 4104 seconds
#
# Revision: 6
# Processed by: cddbd v1.5.2PL0 Copyright (c) Steve Scherf et al.
# Submitted via: CDex 1.51
#
DISCID=6c100619
DTITLE=Various Artist - Essential Country Vol 4 CD2
DYEAR=1995
DGENRE=Country
TTITLE0=Wilma Burgess - Misty Blue
TTITLE1=Johnny Russell - Distant Drums
TTITLE2=Jim Ed Brown - Southern Loving
TTITLE3=Wanda Jackson - It's Only Make Believe
TTITLE4=Barbara Fairchild - Colour My World
TTITLE5=Sandy Posey - Put Your Hand In The Hand
TTITLE6=Ned Miller - From Jack To A King
TTITLE7=Lynn Anderson - Close To You
TTITLE8=Skeeter Davis - Am I That Easy To Forget
TTITLE9=Helen Morgan - D.I.V.O.R.C.E.
TTITLE10=Jeannie C Riley - Harper Valley P.T.A.
TTITLE11=Johnny Russell - Jambalaya
TTITLE12=Roy Atkins - Southern Night
TTITLE13=Hank Locklin - Send Me The Pillow That You Dream On
TTITLE14=Jack Green - There Goes My Everything
TTITLE15=Lynn Anderson - Rose Garden
TTITLE16=Jody Miller - Do What You Do Well
TTITLE17=Sammi Smith - Help Me Make It Through The Night
TTITLE18=Wink Martindale - Deck Of Cards
TTITLE19=Hank Locklin - Please Help Me I'm Falling
TTITLE20=Wanda Jackson - What In The World's Come Over You
TTITLE21=Dottie West - I Fall To Pieces
TTITLE22=Bellamy Brothers - Let Your Love Flow
TTITLE23=Mel Tillis - Good Woman Blues
TTITLE24=Don Williams - Ruby Tuesday
EXTD=YEAR: 1995
EXTT0=
EXTT1=
EXTT2=
EXTT3=
EXTT4=
EXTT5=
EXTT6=
EXTT7=
EXTT8=
EXTT9=
EXTT10=
EXTT11=
EXTT12=
EXTT13=
EXTT14=
EXTT15=
EXTT16=
EXTT17=
EXTT18=
EXTT19=
EXTT20=
EXTT21=
EXTT22=
EXTT23=
EXTT24=
PLAYORDER=
